<svg width="32" height="32" xmlns="http://www.w3.org/2000/svg">
    <path d="M29.6 24c1.323 0 2.4-1.113 2.4-2.48V5.68c0-1.368-1.077-2.48-2.4-2.48H10.4C9.077 3.2 8 4.312 8 5.68V8c1.171 0 2.255.339 3.2.89V6.4h17.6v14.4h-3.2v-3.2h-6.4v3.2h-3.812a6.373 6.373 0 0 1 1.985 3.2H29.6zM8 19.2a4.8 4.8 0 1 0 0-9.6 4.8 4.8 0 0 0 0 9.6zm5.6 9.6c1.314 0 2.393-1.056 2.4-2.369a5.6 5.6 0 0 0-5.6-5.631c-.12 0-.239.017-.353.054-.648.21-1.33.346-2.047.346a6.601 6.601 0 0 1-2.047-.346A1.14 1.14 0 0 0 5.6 20.8 5.6 5.6 0 0 0 0 26.431C.007 27.744 1.087 28.8 2.4 28.8h11.2z" fill="#212423" fill-rule="nonzero"/>
</svg>
