<svg width="24" height="24" xmlns="http://www.w3.org/2000/svg">
    <path d="m19.755 20.754.995-.995c.33-.33.33-.865.004-1.195l-3.505-3.505a.843.843 0 0 0-.598-.246h-.573a7.277 7.277 0 0 0 1.547-4.5A7.311 7.311 0 0 0 10.312 3 7.311 7.311 0 0 0 3 10.313a7.311 7.311 0 0 0 7.312 7.312 7.277 7.277 0 0 0 4.5-1.547v.573c0 .225.088.44.247.598l3.505 3.505a.84.84 0 0 0 1.191 0zm-9.443-5.941c-2.485 0-4.5-2.011-4.5-4.5 0-2.486 2.011-4.5 4.5-4.5 2.486 0 4.5 2.01 4.5 4.5 0 2.485-2.01 4.5-4.5 4.5z" fill="#212423" fill-rule="nonzero"/>
</svg>
