<svg width="32" height="32" xmlns="http://www.w3.org/2000/svg">
    <path d="M15.995 27.625c6.422 0 11.625-5.203 11.625-11.625S22.417 4.375 15.995 4.375 4.37 9.578 4.37 16s5.203 11.625 11.625 11.625zm0-10.5a4.125 4.125 0 1 1 0-8.25 4.125 4.125 0 0 1 0 8.25zm0 7.875a8.982 8.982 0 0 1-6.867-3.197c.881-1.66 2.606-2.803 4.617-2.803.112 0 .225.019.333.052.61.196 1.247.323 1.917.323.67 0 1.312-.127 1.917-.323.108-.033.22-.052.333-.052 2.01 0 3.736 1.144 4.617 2.803A8.982 8.982 0 0 1 15.995 25z" fill="#FFF" fill-rule="nonzero"/>
</svg>
