<svg width="276" height="32" xmlns="http://www.w3.org/2000/svg">
    <g fill="#FFF" fill-rule="nonzero">
        <path d="M175.319 26.513a.416.416 0 0 1-.597 0 .373.373 0 0 1-.139-.288V14.503a.48.48 0 0 1 .15-.351c.1-.09.228-.139.362-.139a.789.789 0 0 1 .735.416l4.561 7.363 4.529-7.342a.874.874 0 0 1 .789-.437.512.512 0 0 1 .5.512v11.722a.437.437 0 0 1-.873 0v-10.88l-4.263 6.894a.714.714 0 0 1-.66.362.703.703 0 0 1-.64-.362l-4.263-6.895v10.86a.394.394 0 0 1-.191.287zM192.22 26.64a.309.309 0 0 1-.267-.127.341.341 0 0 1 0-.288l4.38-11.722a.629.629 0 0 1 .266-.351.853.853 0 0 1 .448-.139c.156.002.308.05.437.139a.586.586 0 0 1 .266.351l4.39 11.722a.298.298 0 0 1 0 .299.32.32 0 0 1-.266.138.703.703 0 0 1-.628-.437l-1.247-3.431a.202.202 0 0 0-.203-.139h-5.456a.202.202 0 0 0-.202.139l-1.247 3.431a.586.586 0 0 1-.671.416zm4.763-11.86-2.547 6.991a.107.107 0 0 0 0 .096.096.096 0 0 0 .085 0h4.956c.074 0 .106 0 .085-.139l-2.536-6.99s-.043.032-.043.042zM208.481 26.513a.416.416 0 0 1-.714-.309V14.482a.5.5 0 0 1 .139-.362.458.458 0 0 1 .34-.15.863.863 0 0 1 .768.416l6.959 10.902V14.386a.394.394 0 0 1 .128-.309.426.426 0 0 1 .309-.128c.11 0 .214.046.287.128a.394.394 0 0 1 .128.31v11.721c0 .13-.05.256-.138.352a.48.48 0 0 1-.352.149.863.863 0 0 1-.757-.416l-6.969-10.89v10.869a.405.405 0 0 1-.128.341zM222.835 26.64a.309.309 0 0 1-.266-.127.341.341 0 0 1 0-.288l4.38-11.722a.629.629 0 0 1 .266-.351.853.853 0 0 1 .448-.139c.156.002.308.05.437.139a.586.586 0 0 1 .266.351l4.39 11.722a.298.298 0 0 1 0 .299.32.32 0 0 1-.266.138.703.703 0 0 1-.629-.437l-1.246-3.431a.202.202 0 0 0-.203-.139h-5.456a.202.202 0 0 0-.202.139l-1.247 3.431a.586.586 0 0 1-.672.416zm4.764-11.86-2.547 6.991a.107.107 0 0 0 0 .096.096.096 0 0 0 .085 0h4.945c.074 0 .106 0 .085-.139l-2.536-6.99s-.032.032-.032.042zM243.52 26.811a6.287 6.287 0 0 1-4.679-1.769 6.394 6.394 0 0 1-1.758-4.72 6.458 6.458 0 0 1 1.726-4.732 6.16 6.16 0 0 1 4.646-1.769 7.374 7.374 0 0 1 3.602.863.384.384 0 0 1 .16.512.437.437 0 0 1-.224.16.33.33 0 0 1-.266 0 6.639 6.639 0 0 0-3.197-.767 5.328 5.328 0 0 0-4.07 1.545 6.67 6.67 0 0 0 0 8.408 5.456 5.456 0 0 0 4.102 1.545 8.035 8.035 0 0 0 3.272-.618.202.202 0 0 0 .138-.192V20.3c0-.085 0-.138-.15-.138h-4.262a.384.384 0 0 1-.255-.096.394.394 0 0 1-.107-.266.352.352 0 0 1 .107-.256.352.352 0 0 1 .255-.107h4.263c.26 0 .51.103.693.288.186.177.29.425.287.682v4.508c.006.294-.075.583-.234.83a1.3 1.3 0 0 1-.66.534 9.59 9.59 0 0 1-3.39.532zM255.145 26.64a1.066 1.066 0 0 1-.99-.99V14.994a.938.938 0 0 1 .298-.693.96.96 0 0 1 .692-.299h5.798c.1 0 .197.043.266.118a.362.362 0 0 1-.266.628h-5.766a.139.139 0 0 0-.16.16v4.359a.139.139 0 0 0 .16.16h5.425a.33.33 0 0 1 .255.106.32.32 0 0 1 .107.256.352.352 0 0 1-.107.266.362.362 0 0 1-.255.096h-5.425c-.106 0-.16.053-.16.139v5.456a.139.139 0 0 0 .16.16h5.766c.1-.004.196.034.266.106.066.068.1.161.096.256a.394.394 0 0 1-.096.266.362.362 0 0 1-.266.118l-5.798-.011zM268.391 26.513a.405.405 0 0 1-.309.128.437.437 0 0 1-.32-.128.426.426 0 0 1-.117-.309V15.068c-.01-.274.085-.54.267-.746.173-.216.427-.351.703-.373.672-.08 1.348-.122 2.025-.128a6.127 6.127 0 0 1 3.591.874 2.93 2.93 0 0 1 1.204 2.536c0 1.77-.97 2.856-2.909 3.261.323.166.598.412.8.714.347.54.643 1.11.884 1.705l1.406 3.261a.266.266 0 0 1 0 .277.309.309 0 0 1-.245.139.64.64 0 0 1-.65-.416l-1.332-3.197a16.98 16.98 0 0 0-.49-1.066 4.263 4.263 0 0 0-.426-.65 1.066 1.066 0 0 0-.533-.383 4.263 4.263 0 0 0-.66-.139 8.088 8.088 0 0 0-1.002 0H268.7a.139.139 0 0 0-.16.16v5.243a.384.384 0 0 1-.149.373zm.118-11.615v5.04c0 .096.053.139.16.139h1.577a6.106 6.106 0 0 0 3.292-.693 2.334 2.334 0 0 0 1.066-2.131c0-1.812-1.336-2.718-4.007-2.718a11.361 11.361 0 0 0-1.918.16c-.117.053-.17.107-.17.203zM75.927 12.596v6.585c0 1.705-.427 2.132-2.132 2.132h-.532v5.328h1.065c5.861 0 6.927-1.066 6.927-6.927v-9.058l-5.328 1.94z"/>
        <path d="M72.73 21.313c-1.705 0-2.132-.427-2.132-2.132v-6.585l-5.328-1.94v9.058c0 5.861 1.066 6.927 6.927 6.927h1.332v-5.328h-.8z" opacity=".8"/>
        <path d="M115.888 22.378h7.193v4.263h-7.193zM123.88 17.583c0-5.861-1.065-6.927-6.926-6.927h-1.066v4.263h.533c1.705 0 2.131.426 2.131 1.332v.266h-2.664v4.263h7.992v-3.197z"/>
        <path d="M114.822 26.64h1.332v-4.262h-.799c-1.705 0-2.131-.426-2.131-1.332v-.266h2.93v-4.263h-2.93v-.266c0-.906.426-1.332 2.131-1.332h.8v-4.263h-1.333c-5.86 0-6.926 1.066-6.926 6.927v2.131c0 5.861 1.065 6.927 6.926 6.927z" opacity=".8"/>
        <path d="M166.506 17.583c0-5.861-1.066-6.927-6.927-6.927h-1.065v4.263h.532c1.705 0 2.132.426 2.132 1.332v.266h-2.664v4.263h2.664v1.598h-2.664v4.263h7.992v-9.058z"/>
        <path d="M151.32 14.919v-4.263h7.46v4.263h-7.46zm6.128 11.722h1.332v-4.263h-2.398a.8.8 0 0 1 0-1.598h2.398v-4.263h-1.332c-5.861 0-6.927 1.066-6.927 5.062 0 3.996 1.066 5.062 6.927 5.062z" opacity=".8"/>
        <path d="M102.568 17.583c0-5.861-1.066-6.927-6.927-6.927h-1.066v5.329h.533c1.705 0 2.131.426 2.131 2.13v1.066c0 1.705-.426 2.132-2.13 2.132h-.534v5.328h1.066c5.86 0 6.927-1.066 6.927-6.927v-2.131z"/>
        <path opacity=".8" d="M91.911 21.313v-5.328h2.93v-5.329h-2.93V6.66L86.583 8.6v18.04h8.259v-5.327z"/>
        <path d="M145.193 17.583c0-5.861-1.066-6.927-6.927-6.927h-1.065v5.329h.533c1.705 0 2.13.426 2.13 2.13v6.586l5.329 1.94v-9.058z"/>
        <path d="M134.537 18.116c0-1.705.426-2.131 2.131-2.131h.8v-5.329h-1.333c-5.86 0-6.927 1.066-6.927 6.927v9.058l5.329-1.94v-6.585zM39.961 19.714c0 5.861 1.066 6.927 6.927 6.927h3.325v-5.328H47.42c-1.705 0-2.131-.427-2.131-2.132V14.12c0-1.705.426-2.132 2.13-2.132h2.793V6.66h-3.325c-5.861 0-6.927 1.066-6.927 6.927v6.127z" opacity=".8"/>
        <path d="M59.942 13.587c0-5.861-1.066-6.927-6.927-6.927h-3.069v5.328h2.537c1.705 0 2.13.427 2.13 2.132v4.326l-1.779-1.78-5.52 1.983 2.632 2.632v5.328h3.07c5.86 0 6.926-1.066 6.926-6.927v-6.095z"/>
        <g>
            <path opacity=".5" d="M15.985 31.97 0 26.15l15.985-6.35 15.984 6.35zM31.97 11.413a5.211 5.211 0 0 0-3.368-5.328L12.82.33a5.264 5.264 0 0 1 3.197 5.222v14.194L32 26.14V11.413h-.032z"/>
            <path d="M7.992.533C3.581 2.142 0 7.023 0 11.434v14.674l15.985-6.394V5.594c0-4.411-3.581-6.692-7.993-5.061z" opacity=".3"/>
            <path d="M0 11.413C0 7.001 3.58 2.121 7.992.512A6.83 6.83 0 0 1 12.82.373l15.782 5.754a6.852 6.852 0 0 0-4.625.203c-4.412 1.609-7.992 6.49-7.992 10.901L0 11.413z" opacity=".5"/>
            <path opacity=".2" d="M15.985 17.231 0 11.413v1.119l15.985 5.818z"/>
            <path opacity=".5" d="m15.985 18.35 15.984-5.818v-1.119l-15.984 5.818zM0 12.532V26.15l15.985 5.818V18.35z"/>
            <path d="M15.985 18.35v13.62l15.984-5.82V12.533zM23.977 6.33c-4.412 1.609-7.992 6.49-7.992 10.901l15.984-5.818c0-4.412-3.58-6.692-7.992-5.083z"/>
        </g>
    </g>
</svg>
